<svg xmlns="http://www.w3.org/2000/svg" width="24" height="24" viewBox="0 0 24 24" fill="none" class="injected-svg" data-src="resources/icons/unplaced_24.svg" xmlns:xlink="http://www.w3.org/1999/xlink">
<path fillRule="evenodd" clipRule="evenodd" fill="currentColor" d="M19.1209 2.7067C19.121 2.70683 19.1212 2.70697 19.1209 2.70751L21.6274 5.2169L21.643 5.23413C21.8613 5.41757 22 5.69259 22 6C22 6.20655 21.9374 6.39848 21.8301 6.55783C21.8006 6.60608 21.7644 6.65119 21.7224 6.69261L19.1213 9.25359C18.7299 9.63894 18.101 9.63649 17.7126 9.24811C17.3166 8.85212 17.3166 8.21895 17.7071 7.82843L18.535 6.99986H16.171L13.166 11.9999L16.171 16.9999H18.586L17.7071 16.1213C17.3166 15.7308 17.3166 15.0976 17.7071 14.7071C18.0971 14.316 18.7302 14.316 19.1208 14.7065V14.7077L21.6481 17.2385C21.8634 17.4219 22 17.695 22 18C22 18.2761 21.8881 18.5261 21.7071 18.7071L21.6651 18.7439L21.5912 18.827L19.1213 21.2548C18.7298 21.6396 18.1013 21.6369 17.7132 21.2487C17.3166 20.8521 17.3166 20.219 17.7071 19.8284L18.535 18.9999L16 19C15.934 19 15.8695 18.9936 15.8071 18.9814C15.403 19.0632 14.9727 18.889 14.7481 18.5152L11.999 13.9409L9.2519 18.5152C9.0447 18.8601 8.66243 19.035 8.28712 18.9946L8.26875 18.996C8.24035 18.9987 8.21183 19 8.1833 19H3C2.44772 19 2 18.5523 2 18C2 17.4477 2.44772 17 3 17L7.828 16.9999L10.833 11.9999L7.828 6.99986L3 7C2.44772 7 2 6.55228 2 6C2 5.44771 2.44772 5 3 5H8.34999L8.37227 4.99991C8.71923 4.99244 9.06036 5.16601 9.2519 5.48479L12 10.0579L14.7481 5.48479C14.9391 5.16694 15.2788 4.99344 15.6247 4.99985L15.6549 5L18.586 4.99986L17.7071 4.12132C17.3166 3.7308 17.3166 3.09763 17.7071 2.70711C18.0972 2.31617 18.7304 2.31617 19.1209 2.7067Z"></path>
</svg>