<svg xmlns="http://www.w3.org/2000/svg" width="24" height="24" viewBox="0 0 24 24" class="injected-svg" data-src="resources/icons/restart_24.svg" xmlns:xlink="http://www.w3.org/1999/xlink">
<path d="M13 3C17.9676 3 22 7.03242 22 12C22 16.9676 17.9676 21 13 21C12.4477 21 12 20.5523 12 20C12 19.4477 12.4477 19 13 19C16.863 19 20 15.863 20 12C20 8.13698 16.863 5 13 5C9.13698 5 6 8.13698 6 12L5.99887 12.0333C5.9985 12.0413 5.99803 12.0493 5.99746 12.0573L6 12C6 12.5329 5.58316 12.9684 5.05775 12.9984C5.04934 12.998 5.04133 12.9985 5.03331 12.9989C5.0224 12.9998 5.01122 13 5 13L4.96741 12.9998C4.75372 12.9961 4.54099 12.9252 4.36354 12.7872L4.26795 12.7028L2.29717 10.732C1.90094 10.3358 1.90094 9.6934 2.29717 9.29717C2.66292 8.93142 3.23844 8.90329 3.63646 9.21277L3.73205 9.29717L4.26401 9.82895C5.23632 5.90886 8.78086 3 13 3Z"></path>
</svg>