<svg width="0" height="0"><symbol xmlns="http://www.w3.org/2000/svg" id="bold" fill="none" stroke="currentColor" stroke-linecap="round" stroke-linejoin="round" stroke-width="2" viewBox="0 0 24 24"><path d="M6 12h9a4 4 0 0 1 0 8H7a1 1 0 0 1-1-1V5a1 1 0 0 1 1-1h7a4 4 0 0 1 0 8"/></symbol><symbol xmlns="http://www.w3.org/2000/svg" id="heading-1" fill="none" stroke="currentColor" stroke-linecap="round" stroke-linejoin="round" stroke-width="2" viewBox="0 0 24 24"><path d="M4 12h8m-8 6V6m8 12V6m5 6 3-2v8"/></symbol><symbol xmlns="http://www.w3.org/2000/svg" id="heading-2" fill="none" stroke="currentColor" stroke-linecap="round" stroke-linejoin="round" stroke-width="2" viewBox="0 0 24 24"><path d="M4 12h8m-8 6V6m8 12V6m9 12h-4c0-4 4-3 4-6 0-1.5-2-2.5-4-1"/></symbol><symbol xmlns="http://www.w3.org/2000/svg" id="heading-3" fill="none" stroke="currentColor" stroke-linecap="round" stroke-linejoin="round" stroke-width="2" viewBox="0 0 24 24"><path d="M4 12h8m-8 6V6m8 12V6m5.5 4.5c1.7-1 3.5 0 3.5 1.5a2 2 0 0 1-2 2m-2 3.5c2 1.5 4 .3 4-1.5a2 2 0 0 0-2-2"/></symbol><symbol xmlns="http://www.w3.org/2000/svg" id="heading-4" fill="none" stroke="currentColor" stroke-linecap="round" stroke-linejoin="round" stroke-width="2" viewBox="0 0 24 24"><path d="M12 18V6m5 4v3a1 1 0 0 0 1 1h3m0-4v8M4 12h8m-8 6V6"/></symbol><symbol xmlns="http://www.w3.org/2000/svg" id="italic" fill="none" stroke="currentColor" stroke-linecap="round" stroke-linejoin="round" stroke-width="2" viewBox="0 0 24 24"><path d="M19 4h-9m4 16H5M15 4 9 20"/></symbol><symbol xmlns="http://www.w3.org/2000/svg" id="strikethrough" fill="none" stroke="currentColor" stroke-linecap="round" stroke-linejoin="round" stroke-width="2" viewBox="0 0 24 24"><path d="M16 4H9a3 3 0 0 0-2.83 4M14 12a4 4 0 0 1 0 8H6m-2-8h16"/></symbol><symbol xmlns="http://www.w3.org/2000/svg" id="text-align-center" fill="none" stroke="currentColor" stroke-linecap="round" stroke-linejoin="round" stroke-width="2" viewBox="0 0 24 24"><path d="M21 5H3m14 7H7m12 7H5"/></symbol><symbol xmlns="http://www.w3.org/2000/svg" id="text-align-end" fill="none" stroke="currentColor" stroke-linecap="round" stroke-linejoin="round" stroke-width="2" viewBox="0 0 24 24"><path d="M21 5H3m18 7H9m12 7H7"/></symbol><symbol xmlns="http://www.w3.org/2000/svg" id="text-align-justify" fill="none" stroke="currentColor" stroke-linecap="round" stroke-linejoin="round" stroke-width="2" viewBox="0 0 24 24"><path d="M3 5h18M3 12h18M3 19h18"/></symbol><symbol xmlns="http://www.w3.org/2000/svg" id="text-align-start" fill="none" stroke="currentColor" stroke-linecap="round" stroke-linejoin="round" stroke-width="2" viewBox="0 0 24 24"><path d="M21 5H3m12 7H3m14 7H3"/></symbol><symbol xmlns="http://www.w3.org/2000/svg" id="text" fill="none" stroke="currentColor" stroke-linecap="round" stroke-linejoin="round" stroke-width="2" viewBox="0 0 24 24"><path d="M12 4v16M4 7V5a1 1 0 0 1 1-1h14a1 1 0 0 1 1 1v2M9 20h6"/></symbol><symbol xmlns="http://www.w3.org/2000/svg" id="underline" fill="none" stroke="currentColor" stroke-linecap="round" stroke-linejoin="round" stroke-width="2" viewBox="0 0 24 24"><path d="M6 4v6a6 6 0 0 0 12 0V4M4 20h16"/></symbol></svg>