<svg width="0" height="0"><symbol xmlns="http://www.w3.org/2000/svg" id="arrow-right" fill="none" stroke="currentColor" stroke-linecap="round" stroke-linejoin="round" stroke-width="2" viewBox="0 0 24 24"><path d="M5 12h14m-4 4 4-4m-4-4 4 4"/></symbol><symbol xmlns="http://www.w3.org/2000/svg" id="arrow" viewBox="0 0 1024 1024"><path d="M104.704 685.248a64 64 0 0 0 90.496 0l316.8-316.8 316.8 316.8a64 64 0 0 0 90.496-90.496L557.248 232.704a64 64 0 0 0-90.496 0L104.704 594.752a64 64 0 0 0 0 90.496z"/></symbol><symbol xmlns="http://www.w3.org/2000/svg" id="calendar-due-date" fill="none" stroke="currentColor" stroke-linecap="round" stroke-linejoin="round" stroke-width="2" viewBox="0 0 24 24"><path d="M4 7a2 2 0 0 1 2-2h12a2 2 0 0 1 2 2v12a2 2 0 0 1-2 2H6a2 2 0 0 1-2-2zm12-4v4M8 3v4m-4 4h16"/><path d="M14 16h2v2h-2z"/></symbol><symbol xmlns="http://www.w3.org/2000/svg" id="calendar-start-date" fill="none" stroke="currentColor" stroke-linecap="round" stroke-linejoin="round" stroke-width="2" viewBox="0 0 24 24"><path d="M4 7a2 2 0 0 1 2-2h12a2 2 0 0 1 2 2v12a2 2 0 0 1-2 2H6a2 2 0 0 1-2-2zm12-4v4M8 3v4m-4 4h16"/><path d="M8 14h2v2H8z"/></symbol><symbol xmlns="http://www.w3.org/2000/svg" id="calendar" viewBox="0 0 16 16"><path d="M3 0h1v3H3V0zm8 0h1v3h-1V0z"/><path d="M6.6 14H1V6h13v.6c.4.2.7.4 1 .7V1h-2v3h-3V1H5v3H2V1H0v14h7.3c-.3-.3-.5-.6-.7-1z"/><path d="M14 12h-3V9h1v2h2z"/><path d="M11.5 8c1.9 0 3.5 1.6 3.5 3.5S13.4 15 11.5 15 8 13.4 8 11.5 9.6 8 11.5 8zm0-1C9 7 7 9 7 11.5S9 16 11.5 16s4.5-2 4.5-4.5S14 7 11.5 7z"/></symbol><symbol xmlns="http://www.w3.org/2000/svg" id="cloud" viewBox="0 0 317.17 317.17"><path d="M260.153 107.248c.012-.524.018-1.042.018-1.555 0-46.565-37.884-84.449-84.448-84.449-44.264 0-80.683 34.232-84.175 77.612a66.167 66.167 0 0 0-25.145-4.938C29.788 93.918 0 123.707 0 160.322s29.788 66.404 66.403 66.404c4.143 0 7.5-3.357 7.5-7.5s-3.357-7.5-7.5-7.5C38.06 211.727 15 188.667 15 160.322s23.06-51.404 51.403-51.404a51.137 51.137 0 0 1 28.489 8.628 7.5 7.5 0 0 0 11.645-6.777l-.038-.534c-.116-1.593-.226-3.098-.226-4.542 0-38.295 31.155-69.449 69.449-69.449s69.448 31.154 69.448 69.449c0 2.504-.18 5.227-.55 8.326a7.497 7.497 0 0 0 8.131 8.357c1.602-.146 2.927-.215 4.171-.215 24.949 0 45.247 20.298 45.247 45.247 0 24.95-20.298 45.248-45.247 45.248-4.143 0-7.5 3.357-7.5 7.5s3.357 7.5 7.5 7.5c33.221 0 60.247-27.027 60.247-60.248.001-32.137-25.29-58.477-57.016-60.16z"/><path d="M161.308 144.389c-41.779 0-75.769 33.989-75.769 75.769s33.989 75.769 75.769 75.769 75.769-33.989 75.769-75.769-33.99-75.769-75.769-75.769zm0 136.537c-33.508 0-60.769-27.261-60.769-60.769s27.261-60.769 60.769-60.769 60.769 27.261 60.769 60.769-27.262 60.769-60.769 60.769z"/><path d="M150.552 210.909a7.5 7.5 0 0 0 8.111-6.834c.345-4.033-2.572-7.583-6.555-8.073 8.69-3.323 18.896-1.843 26.349 4.724a7.5 7.5 0 0 0 9.916-11.256c-12.922-11.383-31.078-13.093-45.566-5.719a7.5 7.5 0 0 0-6.808-6.574 7.483 7.483 0 0 0-8.111 6.834l-1.479 17.309a7.498 7.498 0 0 0 6.834 8.111l17.309 1.478zm38.85 19.534-17.319-1.354c-4.125-.317-7.739 2.763-8.063 6.893-.316 4.047 2.644 7.585 6.647 8.031a25.894 25.894 0 0 1-7.657 1.726c-6.882.489-13.548-1.74-18.76-6.267a7.501 7.501 0 0 0-9.836 11.326c7.496 6.509 16.889 10.007 26.719 10.007.974 0 1.951-.034 2.932-.104a40.739 40.739 0 0 0 15.96-4.486 7.502 7.502 0 0 0 7.444 6.524 7.5 7.5 0 0 0 7.47-6.915l1.355-17.318a7.503 7.503 0 0 0-6.892-8.063z"/></symbol><symbol xmlns="http://www.w3.org/2000/svg" id="cross-arrows" data-src="resources/icons/unplaced_24.svg" viewBox="0 0 24 24"><path d="M19.12 2.707c.001 0 .001 0 0 0l2.507 2.51.016.017a.998.998 0 0 1 .187 1.324.71.71 0 0 1-.108.135l-2.6 2.56a1 1 0 0 1-1.41-.005 1.002 1.002 0 0 1-.005-1.42L18.535 7h-2.364l-3.005 5 3.005 5h2.415l-.879-.879a1 1 0 0 1 1.414-1.414l2.527 2.531a.998.998 0 0 1 .06 1.47l-.043.036-.074.083-2.47 2.428a1 1 0 0 1-1.408-.006 1.002 1.002 0 0 1-.006-1.42l.828-.83L16 19a.95.95 0 0 1-.193-.019 1.004 1.004 0 0 1-1.059-.466L12 13.941l-2.747 4.574a1 1 0 0 1-.965.48l-.018.001a.903.903 0 0 1-.086.004H3a1 1 0 1 1 0-2h4.828l3.005-5-3.005-5H3a1 1 0 0 1 0-2h5.372a1 1 0 0 1 .88.485L12 10.058l2.748-4.573A1 1 0 0 1 15.625 5h2.961l-.879-.879a1 1 0 0 1 1.414-1.414Z"/></symbol><symbol xmlns="http://www.w3.org/2000/svg" xml:space="preserve" id="done" viewBox="0 0 122.877 101.052"><path d="M4.43 63.63A14.383 14.383 0 0 1 .003 53.52a14.393 14.393 0 0 1 4.015-10.281 14.372 14.372 0 0 1 10.106-4.425 14.373 14.373 0 0 1 10.283 4.012l24.787 23.851L98.543 3.989l1.768 1.349-1.77-1.355a2.27 2.27 0 0 1 .479-.466A14.383 14.383 0 0 1 109.243.022V.018l.176.016c3.623.24 7.162 1.85 9.775 4.766a14.383 14.383 0 0 1 3.662 10.412h.004l-.016.176a14.362 14.362 0 0 1-4.609 9.632L59.011 97.11l.004.004a2.157 2.157 0 0 1-.372.368 14.392 14.392 0 0 1-9.757 3.569 14.381 14.381 0 0 1-9.741-4.016L4.43 63.63z"/></symbol><symbol xmlns="http://www.w3.org/2000/svg" id="eye-closed" fill="none" viewBox="0 0 24 24"><path d="M17.94 17.94A10.07 10.07 0 0 1 12 20c-7 0-11-8-11-8a18.45 18.45 0 0 1 5.06-5.94M9.9 4.24A9.12 9.12 0 0 1 12 4c7 0 11 8 11 8a18.5 18.5 0 0 1-2.16 3.19m-6.72-1.07a3 3 0 1 1-4.24-4.24M1 1l22 22"/></symbol><symbol xmlns="http://www.w3.org/2000/svg" id="eye-opened" fill="none" viewBox="0 0 24 24"><path d="M1 12s4-8 11-8 11 8 11 8-4 8-11 8-11-8-11-8z"/><circle cx="12" cy="12" r="3"/></symbol><symbol xmlns="http://www.w3.org/2000/svg" xml:space="preserve" id="filled-star" viewBox="0 0 473.486 473.486"><path d="m473.486 182.079-162.871-24.127L235.904 11.23l-73.276 147.445L0 184.389l117.584 115.252-25.798 162.616 145.946-76.215 146.684 74.787-27.384-162.356z"/></symbol><symbol xmlns="http://www.w3.org/2000/svg" id="inbox" viewBox="0 0 512 512"><path d="M243.591 309.362c3.272 4.317 7.678 6.692 12.409 6.692 4.73 0 9.136-2.376 12.409-6.689l89.594-118.094c3.348-4.414 4.274-8.692 2.611-12.042-1.666-3.35-5.631-5.198-11.168-5.198H315.14c-9.288 0-16.844-7.554-16.844-16.84V59.777c0-11.04-8.983-20.027-20.024-20.027h-44.546c-11.04 0-20.022 8.987-20.022 20.027v97.415c0 9.286-7.556 16.84-16.844 16.84h-34.305c-5.538 0-9.503 1.848-11.168 5.198-1.665 3.35-.738 7.628 2.609 12.046l89.595 118.086z"/><path d="M445.218 294.16v111.304H66.782V294.16H0v152.648c0 14.03 11.413 25.443 25.441 25.443h461.118c14.028 0 25.441-11.413 25.441-25.443V294.16h-66.782z"/></symbol><symbol xmlns="http://www.w3.org/2000/svg" id="mail" viewBox="0 0 122.88 88.86"><path d="M7.05 0h108.78a7.07 7.07 0 0 1 7 7.05v74.76a7 7 0 0 1-1.22 4 2.78 2.78 0 0 1-.66 1 2.62 2.62 0 0 1-.66.46 7 7 0 0 1-4.51 1.65H7.05a7.07 7.07 0 0 1-7-7V7.05a7.07 7.07 0 0 1 7-7.05Zm-.3 78.84 36.78-38.22L6.75 9.54v69.3Zm42.32-33.45L9.77 83.45h103L75.22 45.39l-11 9.21a2.7 2.7 0 0 1-3.45 0l-11.7-9.21Zm31.6-4.84 35.46 38.6V9.2L80.67 40.55ZM10.21 5.41 62.39 47.7l49.88-42.29Z"/></symbol><symbol xmlns="http://www.w3.org/2000/svg" id="note" viewBox="0 0 256 256"><path d="m216 160-56 56v-56Z" opacity=".2"/><path d="M88 96a8 8 0 0 1 8-8h64a8 8 0 0 1 0 16H96a8 8 0 0 1-8-8Zm8 40h64a8 8 0 0 0 0-16H96a8 8 0 0 0 0 16Zm32 16H96a8 8 0 0 0 0 16h32a8 8 0 0 0 0-16Zm96-104v108.69a15.86 15.86 0 0 1-4.69 11.31L168 219.31a15.86 15.86 0 0 1-11.31 4.69H48a16 16 0 0 1-16-16V48a16 16 0 0 1 16-16h160a16 16 0 0 1 16 16ZM48 208h104v-48a8 8 0 0 1 8-8h48V48H48Zm120-40v28.7l28.69-28.7Z"/></symbol><symbol xmlns="http://www.w3.org/2000/svg" id="outlined-star" viewBox="0 -0.5 21 21"><g id="Page-1"><g id="Dribbble-Light-Preview" transform="translate(-139 -320)"><g id="icons" transform="translate(56 160)"><path id="star_favorite-[#1498]" d="M98.786 170.404a4.379 4.379 0 0 0-1.276 3.897l.46 2.656-2.405-1.254a4.48 4.48 0 0 0-2.065-.506c-.717 0-1.43.175-2.065.506l-2.405 1.254.46-2.656a4.382 4.382 0 0 0-1.276-3.897l-1.945-1.881 2.688-.388a4.432 4.432 0 0 0 3.341-2.408l1.202-2.417 1.203 2.417a4.43 4.43 0 0 0 3.34 2.408l2.689.388-1.946 1.881Zm4.638-.971c1.128-1.091.506-2.992-1.053-3.217l-3.963-.571a1.897 1.897 0 0 1-1.431-1.032l-1.773-3.562A1.88 1.88 0 0 0 93.5 160a1.88 1.88 0 0 0-1.705 1.051l-1.771 3.562a1.9 1.9 0 0 1-1.431 1.032l-3.963.571c-1.56.225-2.182 2.126-1.054 3.217l2.867 2.773c.449.433.653 1.057.547 1.669l-.677 3.916c-.211 1.219.766 2.209 1.873 2.209a1.9 1.9 0 0 0 .885-.221l3.544-1.849a1.919 1.919 0 0 1 1.77 0l3.544 1.849a1.9 1.9 0 0 0 .884.221c1.108 0 2.085-.99 1.874-2.209l-.677-3.916a1.874 1.874 0 0 1 .546-1.669l2.868-2.773Z"/></g></g></g></symbol><symbol xmlns="http://www.w3.org/2000/svg" xml:space="preserve" id="palette" viewBox="0 0 496 496"><path d="M248 40C111.256 40 0 133.312 0 248c0 114.696 111.256 208 248 208 5.976 0 12.024-.184 17.976-.544 25.808-1.592 46.024-23.088 46.024-48.96v-77.504C312 310.8 326.8 296 344.992 296h102.44c26.712 0 48.504-21.336 48.568-48 0-114.688-111.256-208-248-208zm199.432 240h-102.44C317.976 280 296 301.976 296 328.992v77.504c0 17.432-13.616 31.92-31 32.992-5.608.344-11.28.512-17 .512-127.928 0-232-86.136-232-192S120.072 56 248 56s232 86.136 232 192.392C479.96 265.824 465.344 280 447.432 280z"/><path d="M352 112c-39.696 0-72 32.304-72 72s32.304 72 72 72 72-32.304 72-72-32.304-72-72-72zm0 128c-30.88 0-56-25.12-56-56s25.12-56 56-56 56 25.12 56 56-25.12 56-56 56zM216 88c-26.472 0-48 21.528-48 48s21.528 48 48 48 48-21.528 48-48-21.528-48-48-48zm0 80c-17.648 0-32-14.352-32-32s14.352-32 32-32 32 14.352 32 32-14.352 32-32 32zm-96 72c26.472 0 48-21.528 48-48s-21.528-48-48-48-48 21.528-48 48 21.528 48 48 48zm0-80c17.648 0 32 14.352 32 32s-14.352 32-32 32-32-14.352-32-32 14.352-32 32-32zm-16 96c-22.056 0-40 17.944-40 40s17.944 40 40 40 40-17.944 40-40-17.944-40-40-40zm0 64c-13.232 0-24-10.768-24-24s10.768-24 24-24 24 10.768 24 24-10.768 24-24 24zm80 0c-22.056 0-40 17.944-40 40s17.944 40 40 40 40-17.944 40-40-17.944-40-40-40zm0 64c-13.232 0-24-10.768-24-24s10.768-24 24-24 24 10.768 24 24-10.768 24-24 24z"/></symbol><symbol xmlns="http://www.w3.org/2000/svg" id="plus" viewBox="0 0 24 24"><path d="M12 3a1 1 0 0 0-1 1v7H4a1 1 0 1 0 0 2h7v7a1 1 0 1 0 2 0v-7h7a1 1 0 1 0 0-2h-7V4a1 1 0 0 0-1-1z"/></symbol><symbol xmlns="http://www.w3.org/2000/svg" id="reset" data-src="resources/icons/restart_24.svg" viewBox="0 0 24 24"><path d="M13 3c4.968 0 9 4.032 9 9s-4.032 9-9 9a1 1 0 1 1 0-2c3.863 0 7-3.137 7-7s-3.137-7-7-7-7 3.137-7 7l-.001.033-.002.024L6 12a1 1 0 0 1-.942.998h-.025A.407.407 0 0 1 5 13h-.033a1.01 1.01 0 0 1-.603-.213l-.096-.084-1.97-1.971a1.015 1.015 0 0 1 1.338-1.52l.096.085.532.532C5.236 5.909 8.781 3 13 3Z"/></symbol><symbol xmlns="http://www.w3.org/2000/svg" id="settings" viewBox="0 0 16 16"><path d="M8 5a3 3 0 1 0 0 6 3 3 0 0 0 0-6zM6.5 8a1.5 1.5 0 1 1 3 0 1.5 1.5 0 0 1-3 0z"/><path d="M7.5 0a1.75 1.75 0 0 0-1.75 1.75v.15a6.99 6.99 0 0 0-.472.196l-.106-.106a1.75 1.75 0 0 0-2.475 0l-.707.707a1.75 1.75 0 0 0 0 2.475l.106.106a6.46 6.46 0 0 0-.196.472h-.15A1.75 1.75 0 0 0 0 7.5v1c0 .966.784 1.75 1.75 1.75h.15c.06.16.125.318.196.472l-.106.107a1.75 1.75 0 0 0 0 2.474l.707.708a1.75 1.75 0 0 0 2.475 0l.106-.107c.154.071.312.137.472.196v.15c0 .966.784 1.75 1.75 1.75h1a1.75 1.75 0 0 0 1.75-1.75v-.15c.16-.06.318-.125.472-.196l.106.107a1.75 1.75 0 0 0 2.475 0l.707-.707a1.75 1.75 0 0 0 0-2.475l-.106-.107c.071-.154.137-.311.196-.472h.15A1.75 1.75 0 0 0 16 8.5v-1a1.75 1.75 0 0 0-1.75-1.75h-.15a6.455 6.455 0 0 0-.196-.472l.106-.106a1.75 1.75 0 0 0 0-2.475l-.707-.707a1.75 1.75 0 0 0-2.475 0l-.106.106a6.46 6.46 0 0 0-.472-.196v-.15A1.75 1.75 0 0 0 8.5 0h-1zm-.25 1.75a.25.25 0 0 1 .25-.25h1a.25.25 0 0 1 .25.25v.698a.75.75 0 0 0 .555.724c.42.113.817.28 1.186.492a.75.75 0 0 0 .905-.12l.493-.494a.25.25 0 0 1 .354 0l.707.708a.25.25 0 0 1 0 .353l-.494.494a.75.75 0 0 0-.12.904c.213.369.38.767.492 1.186a.75.75 0 0 0 .724.555h.698a.25.25 0 0 1 .25.25v1a.25.25 0 0 1-.25.25h-.698a.75.75 0 0 0-.724.555c-.113.42-.28.817-.492 1.186a.75.75 0 0 0 .12.905l.494.493a.25.25 0 0 1 0 .354l-.707.707a.25.25 0 0 1-.354 0l-.494-.494a.75.75 0 0 0-.904-.12 4.966 4.966 0 0 1-1.186.492.75.75 0 0 0-.555.724v.698a.25.25 0 0 1-.25.25h-1a.25.25 0 0 1-.25-.25v-.698a.75.75 0 0 0-.555-.724 4.966 4.966 0 0 1-1.186-.491.75.75 0 0 0-.904.12l-.494.493a.25.25 0 0 1-.354 0l-.707-.707a.25.25 0 0 1 0-.354l.494-.493a.75.75 0 0 0 .12-.905 4.966 4.966 0 0 1-.492-1.186.75.75 0 0 0-.724-.555H1.75a.25.25 0 0 1-.25-.25v-1a.25.25 0 0 1 .25-.25h.698a.75.75 0 0 0 .724-.555c.113-.42.28-.817.491-1.186a.75.75 0 0 0-.12-.904L3.05 4.11a.25.25 0 0 1 0-.353l.707-.708a.25.25 0 0 1 .354 0l.493.494a.75.75 0 0 0 .905.12 4.965 4.965 0 0 1 1.186-.492.75.75 0 0 0 .555-.724V1.75z"/></symbol><symbol xmlns="http://www.w3.org/2000/svg" id="timer" viewBox="0 0 24 24"><path d="m18.3 8.59.91-.9a1 1 0 0 0-1.42-1.42l-.9.91a8 8 0 0 0-9.79 0l-.91-.92a1 1 0 0 0-1.42 1.43l.92.91A7.92 7.92 0 0 0 4 13.5a8 8 0 1 0 14.3-4.91ZM12 19.5a6 6 0 1 1 6-6 6 6 0 0 1-6 6Zm-2-15h4a1 1 0 0 0 0-2h-4a1 1 0 0 0 0 2Zm3 6a1 1 0 0 0-2 0v1.89a1.5 1.5 0 1 0 2 0Z"/></symbol><symbol xmlns="http://www.w3.org/2000/svg" id="trash-can" viewBox="0 0 32 32"><path d="M12 12h2v12h-2zm6 0h2v12h-2z"/><path d="M4 6v2h2v20a2 2 0 0 0 2 2h16a2 2 0 0 0 2-2V8h2V6zm4 22V8h16v20zm4-26h8v2h-8z"/></symbol><symbol xmlns="http://www.w3.org/2000/svg" id="upcoming" viewBox="0 0 361.77 361.77"><path d="M323.885 43.77h-27.5V25c0-13.807-11.193-25-25-25h-1c-13.807 0-25 11.193-25 25v18.77h-129V25c0-13.807-11.193-25-25-25h-1c-13.807 0-25 11.193-25 25v18.77h-27.5c-13.807 0-25 11.193-25 25v268c0 13.809 11.193 25 25 25h286c13.807 0 25-11.191 25-25v-268c0-13.807-11.194-25-25-25zm-17 278.5h-252v-203h252v203z"/><path d="M89.136 211.134h43.498a4 4 0 0 0 4-4v-43.498a4 4 0 0 0-4-4H89.136a4 4 0 0 0-4 4v43.498a4 4 0 0 0 4 4zm70 0h43.498a4 4 0 0 0 4-4v-43.498a4 4 0 0 0-4-4h-43.498a4 4 0 0 0-4 4v43.498a4 4 0 0 0 4 4zm70 0h43.498a4 4 0 0 0 4-4v-43.498a4 4 0 0 0-4-4h-43.498a4 4 0 0 0-4 4v43.498a4 4 0 0 0 4 4zm-140 70h43.498a4 4 0 0 0 4-4v-43.498a4 4 0 0 0-4-4H89.136a4 4 0 0 0-4 4v43.498a4 4 0 0 0 4 4zm70 0h43.498a4 4 0 0 0 4-4v-43.498a4 4 0 0 0-4-4h-43.498a4 4 0 0 0-4 4v43.498a4 4 0 0 0 4 4zm70 0h43.498a4 4 0 0 0 4-4v-43.498a4 4 0 0 0-4-4h-43.498a4 4 0 0 0-4 4v43.498a4 4 0 0 0 4 4z"/></symbol></svg>