<svg width="0" height="0" class="hidden"><symbol viewBox="0 0 1024 1024" xmlns="http://www.w3.org/2000/svg" id="arrow"><path d="M104.704 685.248a64 64 0 0 0 90.496 0l316.8-316.8l316.8 316.8a64 64 0 0 0 90.496-90.496L557.248 232.704a64 64 0 0 0-90.496 0L104.704 594.752a64 64 0 0 0 0 90.496z"></path></symbol><symbol viewBox="0 0 16 16" version="1.1" xmlns="http://www.w3.org/2000/svg" xmlns:xlink="http://www.w3.org/1999/xlink" id="calendar"><path d="M3 0h1v3h-1v-3z"></path><path d="M11 0h1v3h-1v-3z"></path><path d="M6.6 14h-5.6v-8h13v0.6c0.4 0.2 0.7 0.4 1 0.7v-6.3h-2v3h-3v-3h-5v3h-3v-3h-2v14h7.3c-0.3-0.3-0.5-0.6-0.7-1z"></path><path d="M14 12h-3v-3h1v2h2z"></path><path d="M11.5 8c1.9 0 3.5 1.6 3.5 3.5s-1.6 3.5-3.5 3.5-3.5-1.6-3.5-3.5 1.6-3.5 3.5-3.5zM11.5 7c-2.5 0-4.5 2-4.5 4.5s2 4.5 4.5 4.5 4.5-2 4.5-4.5-2-4.5-4.5-4.5v0z"></path></symbol><symbol version="1.1" id="cloud" xmlns="http://www.w3.org/2000/svg" xmlns:xlink="http://www.w3.org/1999/xlink" viewBox="0 0 317.17 317.17" xml:space="preserve"><g><path d="M260.153,107.248c0.012-0.524,0.018-1.042,0.018-1.555c0-46.565-37.884-84.449-84.448-84.449
c-44.264,0-80.683,34.232-84.175,77.612c-7.93-3.252-16.444-4.938-25.145-4.938C29.788,93.918,0,123.707,0,160.322
s29.788,66.404,66.403,66.404c4.143,0,7.5-3.357,7.5-7.5s-3.357-7.5-7.5-7.5C38.06,211.727,15,188.667,15,160.322
s23.06-51.404,51.403-51.404c10.183,0,20.034,2.983,28.489,8.628c2.383,1.59,5.462,1.684,7.936,0.244
c2.476-1.44,3.914-4.164,3.709-7.021l-0.038-0.534c-0.116-1.593-0.226-3.098-0.226-4.542c0-38.295,31.155-69.449,69.449-69.449
s69.448,31.154,69.448,69.449c0,2.504-0.18,5.227-0.55,8.326c-0.269,2.247,0.493,4.496,2.071,6.118
c1.58,1.623,3.807,2.443,6.06,2.239c1.602-0.146,2.927-0.215,4.171-0.215c24.949,0,45.247,20.298,45.247,45.247
c0,24.95-20.298,45.248-45.247,45.248c-4.143,0-7.5,3.357-7.5,7.5s3.357,7.5,7.5,7.5c33.221,0,60.247-27.027,60.247-60.248
C317.17,135.271,291.879,108.931,260.153,107.248z"></path><path d="M161.308,144.389c-41.779,0-75.769,33.989-75.769,75.769s33.989,75.769,75.769,75.769s75.769-33.989,75.769-75.769
S203.087,144.389,161.308,144.389z M161.308,280.926c-33.508,0-60.769-27.261-60.769-60.769s27.261-60.769,60.769-60.769
s60.769,27.261,60.769,60.769S194.815,280.926,161.308,280.926z"></path><path d="M150.552,210.909c0.218,0.019,0.434,0.027,0.647,0.027c3.853,0,7.13-2.952,7.464-6.861
c0.345-4.033-2.572-7.583-6.555-8.073c8.69-3.323,18.896-1.843,26.349,4.724c3.109,2.739,7.848,2.438,10.586-0.67
c2.738-3.108,2.438-7.848-0.67-10.586c-12.922-11.383-31.078-13.093-45.566-5.719c-0.413-3.457-3.203-6.266-6.808-6.574
c-4.15-0.357-7.759,2.707-8.111,6.834l-1.479,17.309c-0.353,4.128,2.707,7.759,6.834,8.111L150.552,210.909z"></path><path d="M189.402,230.443l-17.319-1.354c-4.125-0.317-7.739,2.763-8.063,6.893c-0.316,4.047,2.644,7.585,6.647,8.031
c-2.418,0.949-4.992,1.539-7.657,1.726c-6.882,0.489-13.548-1.74-18.76-6.267c-3.126-2.714-7.863-2.382-10.581,0.745
c-2.716,3.128-2.382,7.865,0.745,10.581c7.496,6.509,16.889,10.007,26.719,10.007c0.974,0,1.951-0.034,2.932-0.104
c5.666-0.399,11.068-1.944,15.96-4.486c0.448,3.442,3.252,6.22,6.851,6.502c0.199,0.016,0.396,0.022,0.593,0.022
c3.877,0,7.162-2.984,7.47-6.915l1.355-17.318c0.155-1.982-0.484-3.946-1.776-5.458
C193.226,231.535,191.386,230.599,189.402,230.443z"></path></g></symbol><symbol xmlns="http://www.w3.org/2000/svg" viewBox="0 0 24 24" data-src="resources/icons/unplaced_24.svg" xmlns:xlink="http://www.w3.org/1999/xlink" id="cross-arrows"><path fill-rule="evenodd" clip-rule="evenodd" d="M19.1209 2.7067C19.121 2.70683 19.1212 2.70697 19.1209 2.70751L21.6274 5.2169L21.643 5.23413C21.8613 5.41757 22 5.69259 22 6C22 6.20655 21.9374 6.39848 21.8301 6.55783C21.8006 6.60608 21.7644 6.65119 21.7224 6.69261L19.1213 9.25359C18.7299 9.63894 18.101 9.63649 17.7126 9.24811C17.3166 8.85212 17.3166 8.21895 17.7071 7.82843L18.535 6.99986H16.171L13.166 11.9999L16.171 16.9999H18.586L17.7071 16.1213C17.3166 15.7308 17.3166 15.0976 17.7071 14.7071C18.0971 14.316 18.7302 14.316 19.1208 14.7065V14.7077L21.6481 17.2385C21.8634 17.4219 22 17.695 22 18C22 18.2761 21.8881 18.5261 21.7071 18.7071L21.6651 18.7439L21.5912 18.827L19.1213 21.2548C18.7298 21.6396 18.1013 21.6369 17.7132 21.2487C17.3166 20.8521 17.3166 20.219 17.7071 19.8284L18.535 18.9999L16 19C15.934 19 15.8695 18.9936 15.8071 18.9814C15.403 19.0632 14.9727 18.889 14.7481 18.5152L11.999 13.9409L9.2519 18.5152C9.0447 18.8601 8.66243 19.035 8.28712 18.9946L8.26875 18.996C8.24035 18.9987 8.21183 19 8.1833 19H3C2.44772 19 2 18.5523 2 18C2 17.4477 2.44772 17 3 17L7.828 16.9999L10.833 11.9999L7.828 6.99986L3 7C2.44772 7 2 6.55228 2 6C2 5.44771 2.44772 5 3 5H8.34999L8.37227 4.99991C8.71923 4.99244 9.06036 5.16601 9.2519 5.48479L12 10.0579L14.7481 5.48479C14.9391 5.16694 15.2788 4.99344 15.6247 4.99985L15.6549 5L18.586 4.99986L17.7071 4.12132C17.3166 3.7308 17.3166 3.09763 17.7071 2.70711C18.0972 2.31617 18.7304 2.31617 19.1209 2.7067Z"></path></symbol><symbol version="1.1" id="done" xmlns="http://www.w3.org/2000/svg" xmlns:xlink="http://www.w3.org/1999/xlink" x="0px" y="0px" viewBox="0 0 122.877 101.052" enable-background="new 0 0 122.877 101.052" xml:space="preserve"><g><path d="M4.43,63.63c-2.869-2.755-4.352-6.42-4.427-10.11c-0.074-3.689,1.261-7.412,4.015-10.281 c2.752-2.867,6.417-4.351,10.106-4.425c3.691-0.076,7.412,1.255,10.283,4.012l24.787,23.851L98.543,3.989l1.768,1.349l-1.77-1.355 c0.141-0.183,0.301-0.339,0.479-0.466c2.936-2.543,6.621-3.691,10.223-3.495V0.018l0.176,0.016c3.623,0.24,7.162,1.85,9.775,4.766 c2.658,2.965,3.863,6.731,3.662,10.412h0.004l-0.016,0.176c-0.236,3.558-1.791,7.035-4.609,9.632l-59.224,72.09l0.004,0.004 c-0.111,0.141-0.236,0.262-0.372,0.368c-2.773,2.435-6.275,3.629-9.757,3.569c-3.511-0.061-7.015-1.396-9.741-4.016L4.43,63.63 L4.43,63.63z"></path></g></symbol><symbol fill="none" stroke-linecap="round" stroke-linejoin="round" stroke-width="2" viewBox="0 0 24 24" xmlns="http://www.w3.org/2000/svg" id="eye-closed"><path d="M17.94 17.94A10.07 10.07 0 0 1 12 20c-7 0-11-8-11-8a18.45 18.45 0 0 1 5.06-5.94M9.9 4.24A9.12 9.12 0 0 1 12 4c7 0 11 8 11 8a18.5 18.5 0 0 1-2.16 3.19m-6.72-1.07a3 3 0 1 1-4.24-4.24"></path><line x1="1" x2="23" y1="1" y2="23"></line></symbol><symbol fill="none" stroke="" stroke-linecap="round" stroke-linejoin="round" stroke-width="2" viewBox="0 0 24 24" xmlns="http://www.w3.org/2000/svg" id="eye-opened"><path d="M1 12s4-8 11-8 11 8 11 8-4 8-11 8-11-8-11-8z"></path><circle cx="12" cy="12" r="3"></circle></symbol><symbol version="1.1" id="filled-star" xmlns="http://www.w3.org/2000/svg" xmlns:xlink="http://www.w3.org/1999/xlink" viewBox="0 0 473.486 473.486" xml:space="preserve"><polygon points="473.486,182.079 310.615,157.952 235.904,11.23 162.628,158.675 0,184.389 117.584,299.641 91.786,462.257 
	237.732,386.042 384.416,460.829 357.032,298.473 "></polygon></symbol><symbol version="1.1" id="inbox" xmlns="http://www.w3.org/2000/svg" xmlns:xlink="http://www.w3.org/1999/xlink" viewBox="0 0 512 512" xml:space="preserve"><g><path class="st0" d="M243.591,309.362c3.272,4.317,7.678,6.692,12.409,6.692c4.73,0,9.136-2.376,12.409-6.689l89.594-118.094
c3.348-4.414,4.274-8.692,2.611-12.042c-1.666-3.35-5.631-5.198-11.168-5.198H315.14c-9.288,0-16.844-7.554-16.844-16.84V59.777
c0-11.04-8.983-20.027-20.024-20.027h-44.546c-11.04,0-20.022,8.987-20.022,20.027v97.415c0,9.286-7.556,16.84-16.844,16.84
h-34.305c-5.538,0-9.503,1.848-11.168,5.198c-1.665,3.35-0.738,7.628,2.609,12.046L243.591,309.362z"></path><path class="st0" d="M445.218,294.16v111.304H66.782V294.16H0v152.648c0,14.03,11.413,25.443,25.441,25.443h461.118
c14.028,0,25.441-11.413,25.441-25.443V294.16H445.218z"></path></g></symbol><symbol id="mail" data-name="Layer 1" xmlns="http://www.w3.org/2000/svg" viewBox="0 0 122.88 88.86"><title>email</title><path d="M7.05,0H115.83a7.07,7.07,0,0,1,7,7.05V81.81a7,7,0,0,1-1.22,4,2.78,2.78,0,0,1-.66,1,2.62,2.62,0,0,1-.66.46,7,7,0,0,1-4.51,1.65H7.05a7.07,7.07,0,0,1-7-7V7.05A7.07,7.07,0,0,1,7.05,0Zm-.3,78.84L43.53,40.62,6.75,9.54v69.3ZM49.07,45.39,9.77,83.45h103L75.22,45.39l-11,9.21h0a2.7,2.7,0,0,1-3.45,0L49.07,45.39Zm31.6-4.84,35.46,38.6V9.2L80.67,40.55ZM10.21,5.41,62.39,47.7,112.27,5.41Z"></path></symbol><symbol viewBox="0 0 256 256" xmlns="http://www.w3.org/2000/svg" id="note"><g><path d="m216 160l-56 56v-56Z" opacity=".2"></path><path d="M88 96a8 8 0 0 1 8-8h64a8 8 0 0 1 0 16H96a8 8 0 0 1-8-8Zm8 40h64a8 8 0 0 0 0-16H96a8 8 0 0 0 0 16Zm32 16H96a8 8 0 0 0 0 16h32a8 8 0 0 0 0-16Zm96-104v108.69a15.86 15.86 0 0 1-4.69 11.31L168 219.31a15.86 15.86 0 0 1-11.31 4.69H48a16 16 0 0 1-16-16V48a16 16 0 0 1 16-16h160a16 16 0 0 1 16 16ZM48 208h104v-48a8 8 0 0 1 8-8h48V48H48Zm120-40v28.7l28.69-28.7Z"></path></g></symbol><symbol viewBox="0 -0.5 21 21" version="1.1" xmlns="http://www.w3.org/2000/svg" xmlns:xlink="http://www.w3.org/1999/xlink" id="outlined-star"><g id="Page-1" stroke-width="1" fill-rule="evenodd"><g id="Dribbble-Light-Preview" transform="translate(-139.000000, -320.000000)"><g id="icons" transform="translate(56.000000, 160.000000)"><path d="M98.7860271,170.404 C97.7402268,171.416 97.2624767,172.872 97.5102768,174.301 L97.9691269,176.957 L95.5646263,175.703 C94.9304261,175.372 94.216426,175.197 93.5003258,175.197 C92.7831756,175.197 92.0691754,175.372 91.4349753,175.703 L89.0304747,176.957 L89.4903748,174.301 C89.7371249,172.872 89.2593748,171.416 88.2135745,170.404 L86.268974,168.523 L88.9569747,168.135 C90.402825,167.927 91.6512753,167.027 92.2980755,165.727 L93.5003258,163.31 L94.7025761,165.727 C95.3483262,167.027 96.5978265,167.927 98.0426269,168.135 L100.731678,168.523 L98.7860271,170.404 Z M103.423878,169.433 C104.551578,168.342 103.929978,166.441 102.370728,166.216 L98.408027,165.645 C97.7885268,165.556 97.2530267,165.17 96.9768766,164.613 L95.2044762,161.051 C94.8558761,160.35 94.1775759,160 93.5003258,160 C92.8220256,160 92.1437255,160.35 91.7951254,161.051 L90.0237749,164.613 C89.7465749,165.17 89.2110747,165.556 88.5926246,165.645 L84.6299236,166.216 C83.0706733,166.441 82.4480231,168.342 83.5757234,169.433 L86.4432741,172.206 C86.8916242,172.639 87.0963742,173.263 86.9903242,173.875 L86.313074,177.791 C86.102024,179.01 87.0785242,180 88.1862745,180 C88.4781746,180 88.7805746,179.931 89.0714247,179.779 L92.6151756,177.93 C92.8923756,177.786 93.1958257,177.713 93.5003258,177.713 C93.8037759,177.713 94.1072259,177.786 94.384426,177.93 L97.9292269,179.779 C98.2200769,179.931 98.521427,180 98.8133271,180 C99.9210773,180 100.897578,179.01 100.686528,177.791 L100.010327,173.875 C99.9042773,173.263 100.107977,172.639 100.556327,172.206 L103.423878,169.433 Z" id="star_favorite-[#1498]"></path></g></g></g></symbol><symbol version="1.1" id="palette" xmlns="http://www.w3.org/2000/svg" xmlns:xlink="http://www.w3.org/1999/xlink" viewBox="0 0 496 496" xml:space="preserve"><g><g><g><path d="M248,40C111.256,40,0,133.312,0,248c0,114.696,111.256,208,248,208c5.976,0,12.024-0.184,17.976-0.544
				c25.808-1.592,46.024-23.088,46.024-48.96v-77.504C312,310.8,326.8,296,344.992,296h102.44c26.712,0,48.504-21.336,48.568-48
				C496,133.312,384.744,40,248,40z M447.432,280h-102.44C317.976,280,296,301.976,296,328.992v77.504
				c0,17.432-13.616,31.92-31,32.992c-5.608,0.344-11.28,0.512-17,0.512c-127.928,0-232-86.136-232-192S120.072,56,248,56
				s232,86.136,232,192.392C479.96,265.824,465.344,280,447.432,280z"></path><path d="M352,112c-39.696,0-72,32.304-72,72s32.304,72,72,72s72-32.304,72-72S391.696,112,352,112z M352,240
				c-30.88,0-56-25.12-56-56s25.12-56,56-56s56,25.12,56,56S382.88,240,352,240z"></path><path d="M216,88c-26.472,0-48,21.528-48,48s21.528,48,48,48s48-21.528,48-48S242.472,88,216,88z M216,168
				c-17.648,0-32-14.352-32-32s14.352-32,32-32s32,14.352,32,32S233.648,168,216,168z"></path><path d="M120,240c26.472,0,48-21.528,48-48s-21.528-48-48-48s-48,21.528-48,48S93.528,240,120,240z M120,160
				c17.648,0,32,14.352,32,32s-14.352,32-32,32s-32-14.352-32-32S102.352,160,120,160z"></path><path d="M104,256c-22.056,0-40,17.944-40,40c0,22.056,17.944,40,40,40c22.056,0,40-17.944,40-40C144,273.944,126.056,256,104,256
				z M104,320c-13.232,0-24-10.768-24-24s10.768-24,24-24s24,10.768,24,24S117.232,320,104,320z"></path><path d="M184,320c-22.056,0-40,17.944-40,40c0,22.056,17.944,40,40,40c22.056,0,40-17.944,40-40C224,337.944,206.056,320,184,320
				z M184,384c-13.232,0-24-10.768-24-24s10.768-24,24-24s24,10.768,24,24S197.232,384,184,384z"></path></g></g></g></symbol><symbol viewBox="0 0 24 24" xmlns="http://www.w3.org/2000/svg" id="plus"><path fill-rule="evenodd" clip-rule="evenodd" d="M12 3a1 1 0 0 0-1 1v7H4a1 1 0 1 0 0 2h7v7a1 1 0 1 0 2 0v-7h7a1 1 0 1 0 0-2h-7V4a1 1 0 0 0-1-1z"></path></symbol><symbol xmlns="http://www.w3.org/2000/svg" viewBox="0 0 24 24" class="injected-svg" data-src="resources/icons/restart_24.svg" xmlns:xlink="http://www.w3.org/1999/xlink" id="reset"><path d="M13 3C17.9676 3 22 7.03242 22 12C22 16.9676 17.9676 21 13 21C12.4477 21 12 20.5523 12 20C12 19.4477 12.4477 19 13 19C16.863 19 20 15.863 20 12C20 8.13698 16.863 5 13 5C9.13698 5 6 8.13698 6 12L5.99887 12.0333C5.9985 12.0413 5.99803 12.0493 5.99746 12.0573L6 12C6 12.5329 5.58316 12.9684 5.05775 12.9984C5.04934 12.998 5.04133 12.9985 5.03331 12.9989C5.0224 12.9998 5.01122 13 5 13L4.96741 12.9998C4.75372 12.9961 4.54099 12.9252 4.36354 12.7872L4.26795 12.7028L2.29717 10.732C1.90094 10.3358 1.90094 9.6934 2.29717 9.29717C2.66292 8.93142 3.23844 8.90329 3.63646 9.21277L3.73205 9.29717L4.26401 9.82895C5.23632 5.90886 8.78086 3 13 3Z"></path></symbol><symbol viewBox="0 0 16 16" xmlns="http://www.w3.org/2000/svg" id="settings"><g fill-rule="evenodd" clip-rule="evenodd"><path d="M8 5a3 3 0 100 6 3 3 0 000-6zM6.5 8a1.5 1.5 0 113 0 1.5 1.5 0 01-3 0z"></path><path d="M7.5 0a1.75 1.75 0 00-1.75 1.75v.15c-.16.06-.318.125-.472.196l-.106-.106a1.75 1.75 0 00-2.475 0l-.707.707a1.75 1.75 0 000 2.475l.106.106a6.46 6.46 0 00-.196.472h-.15A1.75 1.75 0 000 7.5v1c0 .966.784 1.75 1.75 1.75h.15c.06.16.125.318.196.472l-.106.107a1.75 1.75 0 000 2.474l.707.708a1.75 1.75 0 002.475 0l.106-.107c.154.071.312.137.472.196v.15c0 .966.784 1.75 1.75 1.75h1a1.75 1.75 0 001.75-1.75v-.15c.16-.06.318-.125.472-.196l.106.107a1.75 1.75 0 002.475 0l.707-.707a1.75 1.75 0 000-2.475l-.106-.107c.071-.154.137-.311.196-.472h.15A1.75 1.75 0 0016 8.5v-1a1.75 1.75 0 00-1.75-1.75h-.15a6.455 6.455 0 00-.196-.472l.106-.106a1.75 1.75 0 000-2.475l-.707-.707a1.75 1.75 0 00-2.475 0l-.106.106a6.46 6.46 0 00-.472-.196v-.15A1.75 1.75 0 008.5 0h-1zm-.25 1.75a.25.25 0 01.25-.25h1a.25.25 0 01.25.25v.698c0 .339.227.636.555.724.42.113.817.28 1.186.492a.75.75 0 00.905-.12l.493-.494a.25.25 0 01.354 0l.707.708a.25.25 0 010 .353l-.494.494a.75.75 0 00-.12.904c.213.369.38.767.492 1.186a.75.75 0 00.724.555h.698a.25.25 0 01.25.25v1a.25.25 0 01-.25.25h-.698a.75.75 0 00-.724.555c-.113.42-.28.817-.492 1.186a.75.75 0 00.12.905l.494.493a.25.25 0 010 .354l-.707.707a.25.25 0 01-.354 0l-.494-.494a.75.75 0 00-.904-.12 4.966 4.966 0 01-1.186.492.75.75 0 00-.555.724v.698a.25.25 0 01-.25.25h-1a.25.25 0 01-.25-.25v-.698a.75.75 0 00-.555-.724 4.966 4.966 0 01-1.186-.491.75.75 0 00-.904.12l-.494.493a.25.25 0 01-.354 0l-.707-.707a.25.25 0 010-.354l.494-.493a.75.75 0 00.12-.905 4.966 4.966 0 01-.492-1.186.75.75 0 00-.724-.555H1.75a.25.25 0 01-.25-.25v-1a.25.25 0 01.25-.25h.698a.75.75 0 00.724-.555c.113-.42.28-.817.491-1.186a.75.75 0 00-.12-.904L3.05 4.11a.25.25 0 010-.353l.707-.708a.25.25 0 01.354 0l.493.494c.24.24.611.289.905.12a4.965 4.965 0 011.186-.492.75.75 0 00.555-.724V1.75z"></path></g></symbol><symbol xmlns="http://www.w3.org/2000/svg" viewBox="0 0 24 24" id="timer"><path d="M18.3,8.59l.91-.9a1,1,0,0,0-1.42-1.42l-.9.91a8,8,0,0,0-9.79,0l-.91-.92A1,1,0,0,0,4.77,7.69l.92.91A7.92,7.92,0,0,0,4,13.5,8,8,0,1,0,18.3,8.59ZM12,19.5a6,6,0,1,1,6-6A6,6,0,0,1,12,19.5Zm-2-15h4a1,1,0,0,0,0-2H10a1,1,0,0,0,0,2Zm3,6a1,1,0,0,0-2,0v1.89a1.5,1.5,0,1,0,2,0Z"></path></symbol><symbol viewBox="0 0 32 32" xmlns="http://www.w3.org/2000/svg" id="trash-can"><path d="M12 12h2v12h-2zm6 0h2v12h-2z"></path><path d="M4 6v2h2v20a2 2 0 0 0 2 2h16a2 2 0 0 0 2-2V8h2V6zm4 22V8h16v20zm4-26h8v2h-8z"></path></symbol><symbol version="1.1" id="upcoming" xmlns="http://www.w3.org/2000/svg" xmlns:xlink="http://www.w3.org/1999/xlink" viewBox="0 0 361.77 361.77" xml:space="preserve"><g><g><g><path d="M323.885,43.77h-27.5V25c0-13.807-11.193-25-25-25h-1c-13.807,0-25,11.193-25,25v18.77h-129V25c0-13.807-11.193-25-25-25
        h-1c-13.807,0-25,11.193-25,25v18.77h-27.5c-13.807,0-25,11.193-25,25v268c0,13.809,11.193,25,25,25h286
        c13.807,0,25-11.191,25-25v-268C348.885,54.963,337.691,43.77,323.885,43.77z M306.885,322.27h-252v-203h252V322.27z"></path><path d="M89.136,211.134h43.498c2.209,0,4-1.791,4-4v-43.498c0-2.209-1.791-4-4-4H89.136c-2.209,0-4,1.791-4,4v43.498
        C85.136,209.343,86.927,211.134,89.136,211.134z"></path><path d="M159.136,211.134h43.498c2.209,0,4-1.791,4-4v-43.498c0-2.209-1.791-4-4-4h-43.498c-2.209,0-4,1.791-4,4v43.498
        C155.136,209.343,156.927,211.134,159.136,211.134z"></path><path d="M229.136,211.134h43.498c2.209,0,4-1.791,4-4v-43.498c0-2.209-1.791-4-4-4h-43.498c-2.209,0-4,1.791-4,4v43.498
        C225.136,209.343,226.927,211.134,229.136,211.134z"></path><path d="M89.136,281.134h43.498c2.209,0,4-1.791,4-4v-43.498c0-2.209-1.791-4-4-4H89.136c-2.209,0-4,1.791-4,4v43.498
        C85.136,279.343,86.927,281.134,89.136,281.134z"></path><path d="M159.136,281.134h43.498c2.209,0,4-1.791,4-4v-43.498c0-2.209-1.791-4-4-4h-43.498c-2.209,0-4,1.791-4,4v43.498
        C155.136,279.343,156.927,281.134,159.136,281.134z"></path><path d="M229.136,281.134h43.498c2.209,0,4-1.791,4-4v-43.498c0-2.209-1.791-4-4-4h-43.498c-2.209,0-4,1.791-4,4v43.498
        C225.136,279.343,226.927,281.134,229.136,281.134z"></path></g></g></g></symbol></svg>