<svg width="0" height="0" class="hidden"><symbol viewBox="0 0 15 15" xmlns="http://www.w3.org/2000/svg" id="alph_asc"><path d="m3.5 14.5l-.354.354a.5.5 0 0 0 .708 0L3.5 14.5Zm6-6V8H9v.5h.5Zm0 6H9v.5h.5v-.5Zm-5.646.354l3-3l-.708-.708l-3 3l.708.708Zm0-.708l-3-3l-.708.708l3 3l.708-.708ZM3 0v14.5h1V0H3Zm6.5 9H12V8H9.5v1Zm2.5 2H9.5v1H12v-1Zm-2 .5v-3H9v3h1Zm3-1.5a1 1 0 0 1-1 1v1a2 2 0 0 0 2-2h-1Zm-1-1a1 1 0 0 1 1 1h1a2 2 0 0 0-2-2v1Zm0 5H9.5v1H12v-1Zm-2 .5v-3H9v3h1Zm3-1.5a1 1 0 0 1-1 1v1a2 2 0 0 0 2-2h-1Zm-1-1a1 1 0 0 1 1 1h1a2 2 0 0 0-2-2v1Zm-2-5V2.5H9V7h1Zm3-4.5V7h1V2.5h-1ZM11.5 1A1.5 1.5 0 0 1 13 2.5h1A2.5 2.5 0 0 0 11.5 0v1ZM10 2.5A1.5 1.5 0 0 1 11.5 1V0A2.5 2.5 0 0 0 9 2.5h1ZM9.5 5h4V4h-4v1Z"></path></symbol><symbol viewBox="0 0 15 15" xmlns="http://www.w3.org/2000/svg" id="alph_desc"><path fill-rule="evenodd" d="M3.146.146a.5.5 0 0 1 .708 0l3 3l-.708.708L4 1.707V15H3V1.707L.854 3.854l-.708-.708l3-3ZM11.5 1A1.5 1.5 0 0 0 10 2.5V4h3V2.5A1.5 1.5 0 0 0 11.5 1ZM13 5v2h1V2.5a2.5 2.5 0 0 0-5 0V7h1V5h3ZM9 8h3a2 2 0 0 1 1.323 3.5A2 2 0 0 1 12 15H9V8Zm3 3a1 1 0 1 0 0-2h-2v2h2Zm-2 1h2a1 1 0 1 1 0 2h-2v-2Z" clip-rule="evenodd"></path></symbol></svg>