<svg width="0" height="0"><symbol xmlns="http://www.w3.org/2000/svg" id="alph_asc" data-src="resources/icons/sort_alphabet_down_24.svg" viewBox="0 0 24 24"><path d="M9.387 15.671v.001c-.112.384-.099.721.059 1.002.16.284.418.426.758.426a.767.767 0 0 0 .518-.213c.154-.137.261-.308.32-.509v-.003l.442-1.675h2.933l.48 1.702v.001a.996.996 0 0 0 .323.499.77.77 0 0 0 .495.198c.34 0 .599-.142.759-.426.157-.28.17-.61.058-.978l-2.324-7.723v-.001a1.493 1.493 0 0 0-.504-.762c-.245-.201-.498-.31-.754-.31-.27 0-.525.108-.766.311a1.518 1.518 0 0 0-.493.761l-2.304 7.7Zm4.456-2.871h-1.825l.93-3.485.895 3.485Zm3.932 3.9c.21.261.467.4.77.4h4.147a.734.734 0 0 0 .59-.3c.155-.195.232-.43.232-.7 0-.27-.077-.505-.233-.7a.734.734 0 0 0-.589-.3h-3.144l3.588-5.62c.102-.146.183-.341.244-.58.062-.24.094-.456.094-.65 0-.37-.103-.688-.313-.95-.21-.261-.467-.4-.77-.4h-3.947a.734.734 0 0 0-.59.3c-.155.195-.231.43-.231.7 0 .27.076.505.232.7.157.196.354.3.589.3h2.983l-3.607 5.62a1.95 1.95 0 0 0-.254.59c-.068.248-.104.47-.104.665 0 .354.104.664.313.925ZM4.022 18.567a1 1 0 0 1-.9-.274l-2.83-2.829a1 1 0 0 1 0-1.414l.095-.083a1 1 0 0 1 1.32.083L3 15.343V6a1 1 0 1 1 2 0l-.001 9.387 1.337-1.337a1 1 0 1 1 1.414 1.414l-2.83 2.829a.998.998 0 0 1-.9.274Z"/></symbol><symbol xmlns="http://www.w3.org/2000/svg" id="alph_desc" data-src="resources/icons/sort_alphabet_up_24.svg" viewBox="0 0 24 24"><path d="M9.387 15.671v.001c-.112.384-.099.721.059 1.002.16.284.418.426.758.426a.767.767 0 0 0 .518-.213c.154-.137.261-.308.32-.509v-.003l.442-1.675h2.933l.48 1.702v.001a.996.996 0 0 0 .323.499.77.77 0 0 0 .495.198c.34 0 .599-.142.759-.426.157-.28.17-.61.058-.978l-2.324-7.723v-.001a1.493 1.493 0 0 0-.504-.762c-.245-.201-.498-.31-.754-.31-.27 0-.525.108-.766.311a1.518 1.518 0 0 0-.493.761l-2.304 7.7Zm4.456-2.871h-1.825l.93-3.485.895 3.485Zm3.932 3.9c.21.261.467.4.77.4h4.147a.734.734 0 0 0 .59-.3c.155-.195.232-.43.232-.7 0-.27-.077-.505-.233-.7a.734.734 0 0 0-.589-.3h-3.144l3.588-5.62c.102-.146.183-.341.244-.58.062-.24.094-.456.094-.65 0-.37-.103-.688-.313-.95-.21-.261-.467-.4-.77-.4h-3.947a.734.734 0 0 0-.59.3c-.155.195-.231.43-.231.7 0 .27.076.505.232.7.157.196.354.3.589.3h2.983l-3.607 5.62a1.95 1.95 0 0 0-.254.59c-.068.248-.104.47-.104.665 0 .354.104.664.313.925ZM4.022 5.019a.999.999 0 0 0-.9.274L.291 8.12a1 1 0 0 0 0 1.415l.095.083a1 1 0 0 0 1.32-.083L3 8.243v9.343a1 1 0 1 0 2 0l-.001-9.387 1.337 1.337A1 1 0 1 0 7.75 8.12L4.92 5.293a.998.998 0 0 0-.9-.274Z"/></symbol><symbol xmlns="http://www.w3.org/2000/svg" id="date_created_asc" data-src="resources/icons/sort_1_24.svg" viewBox="0 0 24 24"><path fill-rule="evenodd" d="M18 17a1 1 0 1 1 0 2H6a1 1 0 1 1 0-2h12Zm-2-6a1 1 0 1 1 0 2H6a1 1 0 1 1 0-2h10Zm4-6a1 1 0 1 1 0 2H6a1 1 0 0 1 0-2h14Z" clip-rule="evenodd"/></symbol><symbol xmlns="http://www.w3.org/2000/svg" id="time_asc" viewBox="0 0 24 24"><path fill-rule="evenodd" d="M19 4c.552 0 1 .522 1 1.167v1.166h1c.552 0 1 .523 1 1.167v9.333c0 .645-.448 1.167-1 1.167l-.018-.001h-9.965L11 18c-.552 0-1-.522-1-1.167V7.5c0-.644.448-1.167 1-1.167h1V5.167C12 4.522 12.448 4 13 4s1 .522 1 1.167v1.166h4V5.167C18 4.522 18.448 4 19 4Zm1 4.5h-8V16h8V8.5Z" clip-rule="evenodd"/><path d="M4.022 18.567a1 1 0 0 1-.9-.274l-2.83-2.829a1 1 0 0 1 0-1.414l.095-.083a1 1 0 0 1 1.32.083L3 15.343V6a1 1 0 1 1 2 0l-.001 9.387 1.337-1.337a1 1 0 1 1 1.414 1.414l-2.83 2.829a.998.998 0 0 1-.9.274Z"/></symbol><symbol xmlns="http://www.w3.org/2000/svg" id="time_desc" data-src="resources/icons/sort_date_up_24.svg" viewBox="0 0 24 24"><path fill-rule="evenodd" d="M19 4c.552 0 1 .522 1 1.167v1.166h1c.552 0 1 .523 1 1.167v9.333c0 .645-.448 1.167-1 1.167l-.018-.001h-9.965L11 18c-.552 0-1-.522-1-1.167V7.5c0-.644.448-1.167 1-1.167h1V5.167C12 4.522 12.448 4 13 4s1 .522 1 1.167v1.166h4V5.167C18 4.522 18.448 4 19 4Zm1 4.5h-8V16h8V8.5Z" clip-rule="evenodd"/><path d="M4.022 5.019a.999.999 0 0 0-.9.274L.291 8.12a1 1 0 0 0 0 1.415l.095.083a1 1 0 0 0 1.32-.083L3 8.243v9.343a1 1 0 1 0 2 0l-.001-9.387 1.337 1.337A1 1 0 1 0 7.75 8.12L4.92 5.293a.998.998 0 0 0-.9-.274Z"/></symbol></svg>