<svg xmlns="http://www.w3.org/2000/svg" width="24" height="24" viewBox="0 0 24 24" data-src="resources/icons/sort_alphabet_down_24.svg" xmlns:xlink="http://www.w3.org/1999/xlink">
    <path d="M9.3871 15.6713L9.38709 15.6713L9.38689 15.672C9.27509 16.0556 9.28845 16.3935 9.44578 16.6739C9.60526 16.9582 9.86406 17.1 10.2043 17.1C10.3933 17.1 10.5664 17.0255 10.7217 16.8872C10.8762 16.7495 10.9831 16.579 11.0417 16.378L11.0418 16.378L11.0424 16.3755L11.4837 14.7H14.4169L14.8973 16.4022L14.8976 16.403C14.9563 16.6045 15.0638 16.7719 15.2202 16.9019C15.3739 17.0298 15.5394 17.1 15.715 17.1C16.0552 17.1 16.314 16.9582 16.4735 16.6739C16.6305 16.394 16.6445 16.0643 16.532 15.6959C16.532 15.6959 16.532 15.6958 16.532 15.6958L14.2081 7.97278C14.208 7.97251 14.2079 7.97224 14.2078 7.97197C14.1219 7.66877 13.9533 7.41424 13.7043 7.21017C13.4586 7.00872 13.2065 6.9 12.9496 6.9C12.6803 6.9 12.4245 7.0079 12.1838 7.21108C11.9417 7.41532 11.777 7.66965 11.6913 7.97204C11.6913 7.97229 11.6912 7.97253 11.6911 7.97278L9.3871 15.6713ZM13.8427 12.8H12.0178L12.9489 9.3152L13.8427 12.8ZM17.7748 16.7C17.9841 16.9612 18.2416 17.1 18.5442 17.1H22.6922C22.9268 17.1 23.1245 16.9955 23.2812 16.8C23.4373 16.6053 23.5136 16.37 23.5136 16.1C23.5136 15.83 23.4373 15.5947 23.2812 15.4C23.1245 15.2045 22.9268 15.1 22.6922 15.1H19.5482L23.136 9.4806C23.2383 9.33411 23.3186 9.13887 23.3802 8.89995C23.4418 8.66086 23.4735 8.44391 23.4735 8.25C23.4735 7.88038 23.3707 7.56166 23.161 7.29996C22.9517 7.03884 22.6942 6.9 22.3916 6.9H18.444C18.2093 6.9 18.0116 7.00448 17.8549 7.19996C17.6988 7.39474 17.6226 7.63003 17.6226 7.9C17.6226 8.16997 17.6988 8.40526 17.8549 8.60004C18.0116 8.79552 18.2093 8.9 18.444 8.9H21.4271L17.8198 14.5193C17.7178 14.6655 17.6342 14.8644 17.5661 15.1109C17.4977 15.3583 17.4623 15.5801 17.4623 15.775C17.4623 16.1292 17.5657 16.4392 17.7748 16.7Z" stroke-width="0.2"></path>
    <path d="M4.02193 18.567C3.70606 18.629 3.36604 18.5376 3.12132 18.2929L0.292893 15.4645C-0.0976311 15.0739 -0.0976311 14.4408 0.292893 14.0503L0.387101 13.9671C0.779392 13.662 1.34662 13.6898 1.70711 14.0503L2.999 15.343L3 6C3 5.44771 3.44772 5 4 5C4.55228 5 5 5.44771 5 6L4.999 15.387L6.33553 14.0503C6.72606 13.6597 7.35922 13.6597 7.74975 14.0503C8.14027 14.4408 8.14027 15.0739 7.74975 15.4645L4.92132 18.2929C4.67682 18.5374 4.3372 18.6288 4.02193 18.567Z"></path>
</svg>