<svg xmlns="http://www.w3.org/2000/svg" viewBox="0 0 24 24" data-src="resources/icons/sort_1_24.svg" xmlns:xlink="http://www.w3.org/1999/xlink">
  <path fill-rule="evenodd" clip-rule="evenodd" d="M18 17C18.5523 17 19 17.4477 19 18C19 18.5523 18.5523 19 18 19H6C5.44772 19 5 18.5523 5 18C5 17.4477 5.44772 17 6 17H18ZM16 11C16.5523 11 17 11.4477 17 12C17 12.5523 16.5523 13 16 13H6C5.44772 13 5 12.5523 5 12C5 11.4477 5.44772 11 6 11H16ZM20 5C20.5523 5 21 5.44772 21 6C21 6.55228 20.5523 7 20 7H6C5.44772 7 5 6.55228 5 6C5 5.44772 5.44772 5 6 5H20Z"></path>
</svg>