<svg xmlns="http://www.w3.org/2000/svg" viewBox="0 0 24 24" data-src="resources/icons/sort_date_up_24.svg" xmlns:xlink="http://www.w3.org/1999/xlink">
<path fill-rule="evenodd" clip-rule="evenodd" d="M19 4C19.5523 4 20 4.52233 20 5.16667V6.33333H21C21.5523 6.33333 22 6.85567 22 7.5V16.8333C22 17.4777 21.5523 18 21 18L20.982 17.9988L11.0172 17.9998C11.0115 17.9999 11.0057 18 11 18C10.4477 18 10 17.4777 10 16.8333V7.5C10 6.85567 10.4477 6.33333 11 6.33333H12V5.16667C12 4.52233 12.4477 4 13 4C13.5523 4 14 4.52233 14 5.16667V6.33333H18V5.16667C18 4.52233 18.4477 4 19 4ZM20 8.5H12V16H20V8.5Z"></path>
<path d="M4.02193 5.01879C3.70606 4.9568 3.36604 5.04817 3.12132 5.29289L0.292893 8.12132C-0.0976311 8.51184 -0.0976311 9.14501 0.292893 9.53553L0.387101 9.61872C0.779392 9.92375 1.34662 9.89602 1.70711 9.53553L2.999 8.24279L3 17.5858C3 18.1381 3.44772 18.5858 4 18.5858C4.55228 18.5858 5 18.1381 5 17.5858L4.999 8.19879L6.33553 9.53553C6.72606 9.92606 7.35922 9.92606 7.74975 9.53553C8.14027 9.14501 8.14027 8.51184 7.74975 8.12132L4.92132 5.29289C4.67682 5.04839 4.3372 4.95697 4.02193 5.01879Z"></path>
</svg>  