<svg xmlns="http://www.w3.org/2000/svg" viewBox="0 0 24 24" xmlns:xlink="http://www.w3.org/1999/xlink">
<path fill-rule="evenodd" clip-rule="evenodd" d="M19 4C19.5523 4 20 4.52233 20 5.16667V6.33333H21C21.5523 6.33333 22 6.85567 22 7.5V16.8333C22 17.4777 21.5523 18 21 18L20.982 17.9988L11.0172 17.9998C11.0115 17.9999 11.0057 18 11 18C10.4477 18 10 17.4777 10 16.8333V7.5C10 6.85567 10.4477 6.33333 11 6.33333H12V5.16667C12 4.52233 12.4477 4 13 4C13.5523 4 14 4.52233 14 5.16667V6.33333H18V5.16667C18 4.52233 18.4477 4 19 4ZM20 8.5H12V16H20V8.5Z"></path>
<path d="M4.02193 18.567C3.70606 18.629 3.36604 18.5376 3.12132 18.2929L0.292893 15.4645C-0.0976311 15.0739 -0.0976311 14.4408 0.292893 14.0503L0.387101 13.9671C0.779392 13.662 1.34662 13.6898 1.70711 14.0503L2.999 15.343L3 6C3 5.44771 3.44772 5 4 5C4.55228 5 5 5.44771 5 6L4.999 15.387L6.33553 14.0503C6.72606 13.6597 7.35922 13.6597 7.74975 14.0503C8.14027 14.4408 8.14027 15.0739 7.74975 15.4645L4.92132 18.2929C4.67682 18.5374 4.3372 18.6288 4.02193 18.567Z"></path>
</svg>